<svg class="svg-icon" style="vertical-align:middle;fill:currentColor;width:1em;height:1em;overflow:hidden" viewBox="0 0 1024 1024" xmlns="http://www.w3.org/2000/svg"><path d="M215.513 370.946a15.847 15.847 0 0 0 8.168 2.254 16.04 16.04 0 0 0 13.802-7.84c45.553-76.694 129.194-124.344 218.282-124.344 8.856 0 16.024-7.166 16.024-16.024s-7.168-16.024-16.024-16.024c-100.339 0-194.542 53.658-245.838 140.022-4.522 7.607-2.02 17.45 5.586 21.956zM196.752 417.502c-8.607-1.987-17.23 3.333-19.249 11.955-4.788 20.452-7.496 33.128-7.496 55.88 0 8.856 7.183 16.024 16.024 16.024 8.858 0 16.025-7.168 16.025-16.024 0-19.31 2.16-29.388 6.65-48.589 2.019-8.622-3.333-17.228-11.954-19.246z"/><path d="m947.204 876.167-163.15-163.154a32.14 32.14 0 0 0-1.352-1.273c41.45-62.197 65.652-136.821 65.652-217.013 0-216.48-176.109-392.59-392.588-392.59-216.466 0-392.59 176.11-392.59 392.59 0 216.472 176.124 392.58 392.59 392.58 78.759 0 152.117-23.378 213.648-63.47l-46.696-46.694c-49.011 29.074-105.971 46.069-166.952 46.069-181.132 0-328.494-147.344-328.494-328.484 0-181.132 147.361-328.494 328.494-328.494 181.13 0 328.493 147.362 328.493 328.494 0 85.369-33.002 162.956-86.567 221.433l36.584 36.585a32.155 32.155 0 0 0 4.46 5.588l163.152 163.152c6.26 6.26 14.46 9.39 22.66 9.39s16.415-3.13 22.658-9.39c12.519-12.506 12.519-32.802-.002-45.319z"/></svg>